<?xml version="1.0" encoding="utf-8"?>
<!-- Generator: Adobe Illustrator 26.0.2, SVG Export Plug-In . SVG Version: 6.00 Build 0)  -->
<svg version="1.1" id="图层_1" xmlns="http://www.w3.org/2000/svg" xmlns:xlink="http://www.w3.org/1999/xlink" x="0px" y="0px"
	 viewBox="0 0 100 100" style="enable-background:new 0 0 100 100;" xml:space="preserve">
<style type="text/css">
	.st0{fill:#EAF9F2;}
	.st1{fill:#0ECC7E;}
</style>
<circle class="st0" cx="50" cy="50" r="42"/>
<g>
	<path class="st1" d="M44.1,46.4l5.7-3.3c0.2-0.1,0.3-0.1,0.5,0l5.7,3.3c0.2,0.1,0.2,0.2,0.2,0.4v6.6c0,0.2-0.1,0.3-0.2,0.4
		l-5.7,3.3c-0.2,0.1-0.3,0.1-0.5,0l-5.7-3.3c-0.2-0.1-0.2-0.2-0.2-0.4v-6.6C43.9,46.6,44,46.5,44.1,46.4"/>
	<path class="st1" d="M64.8,49.4L58,37.6c-0.3-0.5-0.7-0.8-1.2-0.8H43.2c-0.5,0-0.9,0.3-1.2,0.8l-6.8,11.8c-0.3,0.5-0.3,0.9,0,1.4
		L42,62.5c0.3,0.5,0.7,0.7,1.2,0.7h13.6c0.5,0,0.9-0.2,1.2-0.7l6.8-11.8C65.1,50.4,65.1,49.8,64.8,49.4 M59.1,55.1
		c0,0.2-0.1,0.4-0.3,0.4l-8.7,5c-0.2,0.1-0.4,0.1-0.5,0l-8.7-5c-0.2-0.1-0.3-0.3-0.3-0.4v-10c0-0.2,0.1-0.4,0.3-0.4l8.7-5
		c0.2-0.1,0.4-0.1,0.5,0l8.7,5c0.2,0.1,0.3,0.3,0.3,0.4V55.1z"/>
</g>
</svg>
