<?xml version="1.0" encoding="utf-8"?>
<!-- Generator: Adobe Illustrator 26.0.2, SVG Export Plug-In . SVG Version: 6.00 Build 0)  -->
<svg version="1.1" id="图层_1" xmlns="http://www.w3.org/2000/svg" xmlns:xlink="http://www.w3.org/1999/xlink" x="0px" y="0px"
	 viewBox="0 0 100 100" style="enable-background:new 0 0 100 100;" xml:space="preserve">
<style type="text/css">
	.st0{fill:#FEF4F5;}
	.st1{fill:#FF637C;}
</style>
<circle class="st0" cx="50" cy="50" r="42"/>
<path class="st1" d="M62.8,45.2c0-2.6-2.1-4.8-4.7-4.8s-4.8,2.1-4.8,4.7c0,2.1,1.4,4,3.4,4.7c-0.6,1.3-1.9,2.1-3.4,2.1h-3.8
	c-1.4,0-2.8,0.5-3.8,1.5v-9.2c2.6-0.5,4.3-3.1,3.6-5.6c-0.5-2.6-3.1-4.3-5.6-3.6c-2.6,0.5-4.3,3.1-3.6,5.6c0.4,1.8,1.8,3.3,3.6,3.6
	v11.7c-2.6,0.5-4.3,3.1-3.8,5.6c0.5,2.6,3.1,4.3,5.6,3.8c2.6-0.5,4.3-3.1,3.8-5.6c-0.4-1.7-1.5-3.2-3.3-3.6c0.6-1.3,1.9-2.1,3.4-2.1
	h3.8c2.5,0,4.7-1.5,5.4-3.8C61,49.6,62.8,47.6,62.8,45.2L62.8,45.2z M41.8,39.5c0-1.5,1.3-2.9,2.9-2.9c1.5,0,2.8,1.3,2.8,2.9l0,0
	c0,1.5-1.3,2.9-2.9,2.9C43.1,42.4,41.8,41.1,41.8,39.5z M47.6,60.5c0,1.5-1.3,2.9-2.9,2.9c-1.5,0-2.9-1.3-2.9-2.9
	c0-1.5,1.3-2.9,2.9-2.9C46.2,57.6,47.6,58.9,47.6,60.5z M58,48.1c-1.5,0-2.9-1.3-2.9-2.9c0-1.5,1.3-2.9,2.9-2.9l0,0
	c1.5,0,2.9,1.3,2.9,2.9C60.9,46.8,59.6,48.1,58,48.1z"/>
</svg>
