<?xml version="1.0" encoding="utf-8"?>
<!-- Generator: Adobe Illustrator 26.0.2, SVG Export Plug-In . SVG Version: 6.00 Build 0)  -->
<svg version="1.1" id="图层_1" xmlns="http://www.w3.org/2000/svg" xmlns:xlink="http://www.w3.org/1999/xlink" x="0px" y="0px"
	 viewBox="0 0 100 100" style="enable-background:new 0 0 100 100;" xml:space="preserve">
<style type="text/css">
	.st0{fill:#ECF9FE;}
	.st1{fill:none;stroke:#00C2F7;stroke-width:2;stroke-linecap:round;stroke-linejoin:round;}
</style>
<circle class="st0" cx="50" cy="50" r="42"/>
<g>
	<line class="st1" x1="56" y1="46.5" x2="44" y2="39.5"/>
	<path class="st1" d="M62,55.3V44.6c0-1-0.5-1.8-1.3-2.3L51.3,37c-0.8-0.5-1.8-0.5-2.6,0l-9.4,5.3c-0.8,0.5-1.3,1.3-1.3,2.3v10.7
		c0,1,0.5,1.8,1.3,2.3l9.4,5.3c0.8,0.5,1.8,0.5,2.6,0l9.4-5.3C61.5,57.1,62,56.2,62,55.3z"/>
	<polyline class="st1" points="38.4,43.3 50,50 61.6,43.3 	"/>
	<line class="st1" x1="50" y1="63.4" x2="50" y2="50"/>
</g>
</svg>
