<?xml version="1.0" encoding="utf-8"?>
<!-- Generator: Adobe Illustrator 26.0.2, SVG Export Plug-In . SVG Version: 6.00 Build 0)  -->
<svg version="1.1" id="图层_1" xmlns="http://www.w3.org/2000/svg" xmlns:xlink="http://www.w3.org/1999/xlink" x="0px" y="0px"
	 viewBox="0 0 100 100" style="enable-background:new 0 0 100 100;" xml:space="preserve">
<style type="text/css">
	.st0{fill:#F4F1FE;}
	.st1{fill:#8D67F8;}
</style>
<circle class="st0" cx="50" cy="50" r="42"/>
<g>
	<path class="st1" d="M62,39v3.4c0,0.6-0.5,1-1,1s-1-0.5-1-1v-1l-6.9,6.9c-0.2,0.2-0.5,0.3-0.7,0.3s-0.5-0.1-0.7-0.3L46.6,43
		l-6.6,6.6c-0.2,0.2-0.5,0.3-0.7,0.3c-0.3,0-0.5-0.1-0.7-0.3c-0.4-0.4-0.4-1.1,0-1.4l7.3-7.3c0.4-0.4,1.1-0.4,1.4,0l5.3,5.3l6.2-6.2
		h-1c-0.6,0-1-0.5-1-1s0.5-1,1-1h3.4c0.1,0,0.1,0,0.2,0c0,0,0,0,0.1,0s0.1,0,0.2,0.1c0,0,0.1,0,0.1,0.1c0,0,0.1,0,0.1,0.1
		c0.1,0,0.1,0.1,0.1,0.1s0,0.1,0.1,0.1c0,0,0,0.1,0.1,0.1c0,0.1,0.1,0.1,0.1,0.2c0,0,0,0,0,0.1C62,38.9,62,39,62,39z M41,62
		c-0.6,0-1-0.5-1-1v-7.3c0-0.6,0.5-1,1-1c0.6,0,1,0.5,1,1V61C42,61.5,41.6,62,41,62z"/>
	<path class="st1" d="M47,62c-0.6,0-1-0.5-1-1V49c0-0.6,0.5-1,1-1c0.6,0,1,0.5,1,1v12C48,61.5,47.5,62,47,62z M53,62
		c-0.6,0-1-0.5-1-1v-8.6c0-0.6,0.5-1,1-1c0.6,0,1,0.5,1,1V61C54,61.5,53.6,62,53,62z M59,62c-0.6,0-1-0.5-1-1V47c0-0.6,0.5-1,1-1
		c0.6,0,1,0.5,1,1v14C60,61.5,59.5,62,59,62z"/>
</g>
</svg>
