<?xml version="1.0" encoding="utf-8"?>
<!-- Generator: Adobe Illustrator 26.0.2, SVG Export Plug-In . SVG Version: 6.00 Build 0)  -->
<svg version="1.1" id="图层_1" xmlns="http://www.w3.org/2000/svg" xmlns:xlink="http://www.w3.org/1999/xlink" x="0px" y="0px"
	 viewBox="0 0 100 100" style="enable-background:new 0 0 100 100;" xml:space="preserve">
<style type="text/css">
	.st0{fill:#F4F1FE;}
	.st1{fill:none;stroke:#8D67F8;stroke-width:2;stroke-linecap:round;stroke-linejoin:round;}
	.st2{fill:none;stroke:#8D67F8;stroke-linecap:round;stroke-linejoin:round;}
</style>
<circle class="st0" cx="50" cy="50" r="42"/>
<path class="st1" d="M52.4,38h-9.6c-1.3,0-2.4,1.1-2.4,2.4v19.2c0,1.3,1.1,2.4,2.4,2.4h14.4c1.3,0,2.4-1.1,2.4-2.4V45.2L52.4,38z"/>
<polyline class="st1" points="52.4,38 52.4,45.2 59.6,45.2 "/>
<path class="st2" d="M44.6,55.8l1.4-1.4c0.2-0.1,0.2-0.5,0.1-0.7c-0.1-0.2-0.5-0.2-0.7-0.1c0,0-0.1,0-0.1,0.1l-1.8,1.8
	c-0.2,0.1-0.2,0.5,0,0.7l0,0l1.8,1.8c0.2,0.2,0.5,0.2,0.7,0l0,0c0.2-0.1,0.2-0.5,0-0.7l0,0L44.6,55.8z M54,57.8
	c0.2,0.2,0.5,0.2,0.7,0l1.8-1.8c0.2-0.1,0.2-0.5,0-0.7l0,0l-1.9-1.7c-0.1-0.2-0.5-0.2-0.7-0.1c-0.2,0.1-0.2,0.5-0.1,0.7
	c0,0,0,0.1,0.1,0.1l1.4,1.4L54,57.2C53.7,57.3,53.7,57.7,54,57.8L54,57.8L54,57.8z M51.1,53.7c-0.2-0.1-0.5,0-0.6,0.2l0,0l-1.8,3.1
	c-0.1,0.2-0.1,0.5,0.1,0.6c0.2,0.1,0.5,0.1,0.7-0.1l0,0l1.8-3C51.4,54.2,51.3,54,51.1,53.7L51.1,53.7z"/>
</svg>
