<?xml version="1.0" encoding="utf-8"?>
<!-- Generator: Adobe Illustrator 26.0.2, SVG Export Plug-In . SVG Version: 6.00 Build 0)  -->
<svg version="1.1" id="图层_1" xmlns="http://www.w3.org/2000/svg" xmlns:xlink="http://www.w3.org/1999/xlink" x="0px" y="0px"
	 viewBox="0 0 100 100" style="enable-background:new 0 0 100 100;" xml:space="preserve">
<style type="text/css">
	.st0{fill:#FEF4F5;}
	.st1{fill:none;stroke:#FF637C;stroke-width:2;stroke-linecap:round;stroke-linejoin:round;}
</style>
<circle class="st0" cx="50" cy="50" r="42"/>
<path class="st1" d="M46.5,58.5c-6,1.8-6-3-8.4-3.6 M54.8,62.1v-4.7c0.1-1.2-0.4-2.3-1.1-3.1c3.7-0.4,7.7-1.8,7.7-8.4
	c0-1.7-0.6-3.2-1.8-4.6c0.6-1.4,0.5-3.1-0.1-4.6c0,0-1.4-0.4-4.7,1.8c-2.8-0.7-5.6-0.7-8.4,0c-3.2-2.2-4.7-1.8-4.7-1.8
	c-0.6,1.4-0.6,3-0.1,4.6c-1.2,1.2-1.8,2.9-1.8,4.6c0,6.5,4,7.9,7.7,8.4c-0.8,0.8-1.2,1.9-1.1,3.1v4.7"/>
</svg>
