<svg id="图层_1" data-name="图层 1" xmlns="http://www.w3.org/2000/svg" xmlns:xlink="http://www.w3.org/1999/xlink" viewBox="0 0 80 80"><defs><style>.cls-1,.cls-2,.cls-3{fill-rule:evenodd;}.cls-1{fill:url(#未命名的渐变_11);}.cls-2{fill:url(#未命名的渐变_34);}.cls-3{fill:url(#未命名的渐变_35);}</style><linearGradient id="未命名的渐变_11" x1="40.05" y1="3.83" x2="40.39" y2="37.82" gradientUnits="userSpaceOnUse"><stop offset="0" stop-color="#f9d448"/><stop offset="1" stop-color="#f17725"/></linearGradient><linearGradient id="未命名的渐变_34" x1="-174.81" y1="-529.25" x2="-174.31" y2="-492.96" gradientTransform="matrix(-0.53, 0.85, -0.85, -0.53, -467.69, -61.81)" gradientUnits="userSpaceOnUse"><stop offset="0" stop-color="#e13575"/><stop offset="1" stop-color="#eb4e95"/></linearGradient><linearGradient id="未命名的渐变_35" x1="-153.08" y1="-502.87" x2="-154.53" y2="-451.25" gradientTransform="matrix(-0.53, 0.85, -0.85, -0.53, -467.69, -61.81)" gradientUnits="userSpaceOnUse"><stop offset="0.16" stop-color="#9754d4"/><stop offset="1" stop-color="#4aaae3"/></linearGradient></defs><path class="cls-1" d="M33.37,2.91A17.49,17.49,0,0,1,28.51,15c-11,9.75-3.26,29.73,11.69,29.2A16.93,16.93,0,0,0,57.14,27.29l.1-.08A24.3,24.3,0,0,0,33.37,2.91Z"/><path class="cls-2" d="M49.64,44.6c-6.17,4.85-9.21,7.5-15.7,2.62,2.51,2.48,5.48,7.16,5.91,10.68,0-.13,0-.27,0-.41C40.6,74.6,64.92,85.25,75,69,85.79,52.8,65.1,33.3,49.64,44.6Z"/><path class="cls-3" d="M30.38,73.71c6.17-4.87,9.21-7.84,15.71-3C43.58,68.26,41,63.9,40.61,60.38c0,.14,0,.28,0,.41C39.83,43.68,15,33.08,5,49.37-5.78,65.58,15,85,30.38,73.71Z"/></svg>