<svg id="图层_1" data-name="图层 1" xmlns="http://www.w3.org/2000/svg" xmlns:xlink="http://www.w3.org/1999/xlink" viewBox="0 0 100 100"><defs><style>.cls-1,.cls-2,.cls-3{fill-rule:evenodd;}.cls-1{fill:url(#未命名的渐变_11);}.cls-2{fill:url(#未命名的渐变_34);}.cls-3{fill:url(#未命名的渐变_35);}</style><linearGradient id="未命名的渐变_11" x1="50.07" y1="3.36" x2="50.51" y2="47.18" gradientUnits="userSpaceOnUse"><stop offset="0" stop-color="#f9d448"/><stop offset="1" stop-color="#f17725"/></linearGradient><linearGradient id="未命名的渐变_34" x1="-163.19" y1="-531.96" x2="-162.54" y2="-485.17" gradientTransform="matrix(-0.53, 0.85, -0.85, -0.53, -443.92, -55.05)" gradientUnits="userSpaceOnUse"><stop offset="0" stop-color="#e13575"/><stop offset="1" stop-color="#eb4e95"/></linearGradient><linearGradient id="未命名的渐变_35" x1="-135.16" y1="-497.95" x2="-137.04" y2="-431.38" gradientTransform="matrix(-0.53, 0.85, -0.85, -0.53, -443.92, -55.05)" gradientUnits="userSpaceOnUse"><stop offset="0.16" stop-color="#9754d4"/><stop offset="1" stop-color="#4aaae3"/></linearGradient></defs><path class="cls-1" d="M41.45,2.18A22.54,22.54,0,0,1,35.18,17.8C21,30.37,31,56.14,50.26,55.46A21.85,21.85,0,0,0,72.1,33.61l.13-.1A31.32,31.32,0,0,0,41.45,2.18Z"/><path class="cls-2" d="M62.44,55.93c-8,6.25-11.88,9.68-20.25,3.37,3.23,3.21,7.06,9.25,7.62,13.78v-.53c1,22.07,32.33,35.8,45.34,14.83C109.05,66.5,82.36,41.36,62.44,55.93Z"/><path class="cls-3" d="M37.6,93.46c7.95-6.27,11.87-10.11,20.25-3.82-3.24-3.2-6.51-8.82-7.07-13.36v.53c-1-22.06-33-35.73-45.95-14.73C-9,83,17.7,108.07,37.6,93.46Z"/></svg>