<svg id="图层_1" data-name="图层 1" xmlns="http://www.w3.org/2000/svg" xmlns:xlink="http://www.w3.org/1999/xlink" viewBox="0 0 50 50"><defs><style>.cls-1,.cls-2,.cls-3{fill-rule:evenodd;}.cls-1{fill:url(#未命名的渐变_11);}.cls-2{fill:url(#未命名的渐变_34);}.cls-3{fill:url(#未命名的渐变_35);}</style><linearGradient id="未命名的渐变_11" x1="25.03" y1="2.57" x2="25.24" y2="23.64" gradientUnits="userSpaceOnUse"><stop offset="0" stop-color="#f9d448"/><stop offset="1" stop-color="#f17725"/></linearGradient><linearGradient id="未命名的渐变_34" x1="-191.94" y1="-527.58" x2="-191.63" y2="-505.07" gradientTransform="matrix(-0.53, 0.85, -0.85, -0.53, -503.33, -71.94)" gradientUnits="userSpaceOnUse"><stop offset="0" stop-color="#e13575"/><stop offset="1" stop-color="#eb4e95"/></linearGradient><linearGradient id="未命名的渐变_35" x1="-178.46" y1="-511.22" x2="-179.36" y2="-479.2" gradientTransform="matrix(-0.53, 0.85, -0.85, -0.53, -503.33, -71.94)" gradientUnits="userSpaceOnUse"><stop offset="0.16" stop-color="#9754d4"/><stop offset="1" stop-color="#4aaae3"/></linearGradient></defs><path class="cls-1" d="M20.89,2a10.82,10.82,0,0,1-3,7.51c-6.81,6.05-2,18.44,7.25,18.11a10.5,10.5,0,0,0,10.51-10.5l.06-.05A15.06,15.06,0,0,0,20.89,2Z"/><path class="cls-2" d="M31,27.85c-3.83,3-5.71,4.66-9.74,1.63,1.56,1.54,3.4,4.44,3.67,6.62v-.25c.46,10.61,15.55,17.21,21.8,7.13C53.4,32.94,40.57,20.85,31,27.85Z"/><path class="cls-3" d="M19,45.91c3.82-3,5.7-4.87,9.74-1.84a12.52,12.52,0,0,1-3.4-6.43v.26c-.48-10.62-15.86-17.19-22.1-7.09C-3.39,40.86,9.47,52.93,19,45.91Z"/></svg>